# xmcd
#
# Track frame offsets:
#	150
#	13405
#	36975
#	49930
#	60617
#	73307
#	85140
#	97872
#	111015
#	121430
#	133762
#	148265
#	160072
#	173957
#	186085
#	198477
#	212262
#	224035
#
# Disc length: 3156
#
# Revision: 2
# Processed by: cddbd v1.5.1PL0 Copyright (c) Steve Scherf et al.
# Submitted via: dBpowerAMP V4.0
# Normalized: r1:TSWAP
#
DISCID=160c5212
DTITLE=Various Artist - Willy Witherspoon
DYEAR=1900
DGENRE=Blues
TTITLE0=S. Terry and B. Mc Ghee - Walk On
TTITLE1=Lightnin' Hopkins - Really Nothin But The Blues
TTITLE2=Muddy Waters - Hoochie Coochie
TTITLE3=BB King - Recession Blues
TTITLE4=Bo Didly - I'm A Man
TTITLE5=T-Bone Walker - T-Bone Blues Special
TTITLE6=Jogn Lee Hooker - Hobo Blues
TTITLE7=Big Bill Broonzy - Backwater Blues
TTITLE8=Jogn Lee Hooker - Maudi
TTITLE9=Otis Spann - I'm In Love With You, Baby
TTITLE10=Little Walter - Sad Hours
TTITLE11=Howlin' Wolf - The Sun Is Rising
TTITLE12=Willie Mabon - Willie's Blues
TTITLE13=Jogn Lee Hooker - I'm In The Mood
TTITLE14=Willy Witherspoon - Every Day
TTITLE15=Muddy Waters - I Want You To Love Me
TTITLE16=Howlin' Wolf - My Country Sugar Mama
TTITLE17=John Lee Hooker - Mr Lucky
EXTD=
EXTT0=
EXTT1=
EXTT2=
EXTT3=
EXTT4=
EXTT5=
EXTT6=
EXTT7=
EXTT8=
EXTT9=
EXTT10=
EXTT11=
EXTT12=
EXTT13=
EXTT14=
EXTT15=
EXTT16=
EXTT17=
PLAYORDER=
